<svg xmlns="http://www.w3.org/2000/svg" width="28" height="19" viewBox="0 0 107 72" shape-rendering="geometricPrecision" text-rendering="geometricPrecision" image-rendering="optimizeQuality" fill-rule="evenodd" clip-rule="evenodd"><defs><style type="text/css"><![CDATA[
    .fil2 {fill:#FEFEFE;fill-rule:nonzero}
    .fil0 {fill:#E41D2C;fill-rule:nonzero}
    .fil1 {fill:#FFE24C;fill-rule:nonzero}
   ]]></style></defs><g id="Слой_x0020_1"><g id="_756254400"><path class="fil0" d="M105 70v-68h-103v68z"/><path class="fil1" d="M19 9l-2 7h-8l6 4-2 7 6-4 6 4-2-7 6-4h-8zM34 7l1 2-2 2 3-1 1 2v-2l3-1-3-1 1-2-2 2zM42 13v2l-2 1h2v3l2-2h2l-2-2 1-2-2 1zM40 25l2 1-1 3 2-2 2 2-1-3 2-1h-2l-1-2-1 2zM33 31l2 2-2 2 3-1 1 2v-2l3-1-3-1v-2l-1 1z"/></g><path class="fil2" d="M2 0h105v72h-107v-72h2zm101 4h-99v65h99v-65z"/></g></svg>