<svg xmlns="http://www.w3.org/2000/svg" width="28" height="19" viewBox="0 0 119 80" shape-rendering="geometricPrecision" text-rendering="geometricPrecision" image-rendering="optimizeQuality" fill-rule="evenodd" clip-rule="evenodd"><defs><style type="text/css"><![CDATA[
    .fil3 {fill:#FEFEFE;fill-rule:nonzero}
    .fil1 {fill:white;fill-rule:nonzero}
    .fil0 {fill:#183E75;fill-rule:nonzero}
    .fil2 {fill:#DC373D;fill-rule:nonzero}
   ]]></style></defs><g id="Слой_x0020_1"><g id="_188193872"><path class="fil0" d="M116 78v-76h-114v76z"/><path class="fil1" d="M2 28h24l-24-17v-9h14l34 23v-23h19v23l33-23h14v9l-24 17h24v25h-24l24 16v9h-14l-33-22v22h-19v-22l-34 22h-14v-9l24-16h-24z"/><path class="fil2" d="M107 2l-38 26h9l38-26zM116 78l-38-25h10l28 19zM40 28l-38-26v6l29 20zM40 53l-38 25h9l38-25zM2 33h52v-31h11v31h51v15h-51v30h-11v-30h-52z"/></g><path class="fil3" d="M2 0h116v80h-118v-80h2zm112 4h-110v72h110v-72z"/></g></svg>