<svg xmlns="http://www.w3.org/2000/svg" width="425" height="55" viewBox="0 0 39351 5093" shape-rendering="geometricPrecision" text-rendering="geometricPrecision" image-rendering="optimizeQuality" fill-rule="evenodd" clip-rule="evenodd"><defs><style type="text/css"><![CDATA[
    .fil0 {fill:#FEFEFE;fill-rule:nonzero}
   ]]></style></defs><path id="RFBUS_логотип.cdr" class="fil0" d="M1665 4998l1-2h-776l16-52h-906l55-180h906l16-52h800c39-101 77-200 113-296h-821l16-52h-906l55-180h906l16-52h841c35-94 68-185 100-273l8-23h-857l16-52h-906l55-180h906l16-52h871c33-95 67-194 102-296h-881l16-52h-906l55-180h906l16-52h890c31-94 63-190 95-289l2-7h-895l16-52h-906l55-180h906l16-52h901c31-98 63-196 94-296h-903l16-52h-906l55-180h906l16-52h906c30-98 60-196 91-296h-905l16-52h-906l55-180h906l16-52h905c31-102 60-201 88-296h-901l16-52h-906l55-180h906l16-52h899c31-106 60-204 86-296h-894l16-52h-906l55-180h906l16-52h906c733 0 1449-3 2182-4 302 0 567 12 797 37 172 16 323 52 453 104 130 53 234 117 312 191 78 76 137 161 176 254 40 93 60 202 62 329 1 125-19 260-59 404-45 161-108 312-187 452s-179 272-301 395c-121 124-259 231-415 320-157 90-367 182-628 275l55 458c16 126 35 256 57 389l177 1055c9 45 21 135 38 270-389-5-651-7-785-7-170 0-449 3-839 7-2-125-6-357-10-696 0-141-3-251-11-328-8-170-25-410-48-718l-78-1020c121 25 242 37 366 37 172 0 335-26 490-79s284-134 388-244c102-109 171-224 205-347 29-102 27-193-5-270-33-77-102-135-208-173-107-38-281-58-524-58-82 0-168 1-258 5-89 4-193 7-312 10-170 491-365 1091-588 1797-223 707-434 1401-633 2082-393-5-648-7-767-7-137 0-385 3-743 7zm24215 0c223-620 312-802 493-1401l1511 9c-180 591-268 775-490 1392h-1514zm2100 0c633-1767 872-2503 1605-4909l2297-22c302-3 567 12 797 37 172 16 323 52 453 104 130 53 234 116 312 191 78 76 137 161 176 254 40 93 60 202 62 329 1 125-19 260-59 404-45 161-108 312-187 452s-179 272-301 395c-121 124-259 231-415 320-157 89-367 182-628 275l55 458c17 126 36 256 57 389l177 1055c9 45 21 135 38 270-389-5-651-7-785-7-170 0-449 3-839 7-2-125-6-357-10-695 0-141-3-251-11-328-8-171-25-410-48-718l-78-1019c121 25 242 37 366 37 172 0 335-26 490-79s284-134 388-244c102-109 171-225 205-347 29-102 28-193-5-270s-102-135-207-173c-107-38-281-58-524-58-82 0-168 1-258 5-89 4-193 7-312 10-169 491-365 1091-588 1797-223 707-434 1401-633 2082h-1589zm6517-4909c366 5 625 7 776 7 189 0 441-3 756-7l-537 1530c-101 287-194 557-275 810-82 251-137 426-164 521-52 183-81 335-89 458-9 121 9 226 54 310 45 86 122 150 232 193s231 65 364 65c114 0 224-16 332-47 86-26 165-61 239-108 66-43 129-92 185-150 69-69 137-154 204-258 65-97 128-222 191-377 65-157 194-514 385-1071 165-475 310-909 437-1303 122-383 188-574 200-574h1563l-888 2555c-16 48-28 87-37 118-150 499-279 851-388 1056-108 205-244 384-404 535-161 151-371 287-632 409-261 120-543 206-845 256-303 50-602 76-898 76-265 0-514-20-749-58-216-38-405-94-567-167-161-74-295-159-403-258-97-91-165-184-205-278-40-96-60-209-60-341-1-148 23-308 71-478 16-58 43-144 80-260 38-116 95-285 173-503l208-575c53-151 129-373 225-665l464-1422zm-27729 4909c187-487 330-877 433-1173 152-437 347-1037 589-1800 241-764 398-1278 473-1542l111-395c708 5 1369 7 1979 7 616 0 1209-3 1779-7-192 550-313 909-360 1078l-305-11-247-4-247-4h-698c-80 0-316 2-707 7l-266 846 510 7h572c166 0 418-4 760-11-153 454-267 810-339 1067-376-12-655-18-839-18-311 0-651 6-1022 18l-403 1293-140 481-45 158c-532-5-1057-5-1589 0zm4452 0c198-527 347-942 449-1244 140-413 323-979 547-1698 226-720 379-1227 462-1521 30-105 71-255 122-446 312 7 560 11 744 11 257 0 558-6 903-16 345-11 641-17 886-17 295 0 503 9 622 26 159 22 294 60 401 115 109 55 193 123 252 205 65 96 105 211 119 345 16 153-1 318-51 493-38 136-92 266-161 391-70 125-150 235-240 332-89 97-182 178-279 243-96 65-186 115-271 151-84 36-193 72-329 108 119 21 212 46 279 74 69 27 136 72 204 134 69 60 124 139 166 236 41 96 62 202 63 321 0 119-18 244-55 377-51 182-128 353-233 514-104 161-226 299-364 413-117 99-258 183-422 253-163 69-325 118-482 144-129 20-356 33-683 43s-671 15-1035 15l-928-4-688 4zm2426-2996h499c164 0 282-4 354-12 71-9 143-23 215-45 71-22 138-58 201-108s112-107 149-169c38-63 65-124 83-186 25-90 27-168 5-238s-73-121-155-155c-83-33-218-50-405-50h-633l-312 964zm-650 2010h676c179 0 313-11 403-32 112-27 200-61 265-106 67-43 125-102 179-177 52-74 91-157 117-248 22-80 29-150 20-210s-33-110-74-151c-41-40-95-70-165-88s-185-27-344-27h-742l-336 1038zm4944-3923c366 5 625 7 776 7 188 0 441-3 756-7l-537 1530c-101 287-194 557-275 810-82 251-137 426-164 521-51 183-81 335-89 458-9 121 9 226 54 310 45 86 122 150 232 193s231 65 364 65c114 0 225-16 332-47 86-26 165-61 239-108 67-43 129-92 185-150 69-69 137-154 204-258 65-97 128-222 191-377 65-157 194-514 385-1071 165-475 310-909 437-1303 122-383 188-574 200-574h1563l-888 2555c-16 48-28 87-37 118-150 499-279 851-388 1056-108 205-243 384-404 535s-371 287-632 409c-261 120-543 206-845 256-303 50-602 76-898 76-265 0-514-20-749-58-217-38-405-94-567-167-161-74-295-159-403-258-96-91-165-184-204-278-40-96-60-209-60-341 0-148 23-308 71-478 16-58 43-144 80-260 38-116 95-285 173-503l208-575c53-151 129-373 225-665l464-1422zm4023 4836c113-509 191-916 237-1222 233 119 447 201 643 247 195 47 371 70 527 70 208 0 381-31 520-92s226-151 260-271c11-40 16-80 15-116-1-38-11-80-32-126-21-47-54-97-100-152l-506-590c-119-134-202-231-247-291-91-123-158-237-199-342-40-106-61-212-63-321s15-225 49-347c41-146 107-289 197-429s203-271 340-394c136-122 299-227 494-315 193-90 389-150 590-182 202-33 403-49 607-49 400 0 822 47 1267 140-40 166-75 317-103 454-29 137-74 379-136 724-194-88-376-150-548-184-170-34-322-52-452-52-185 0-349 34-491 104s-228 156-256 259c-14 48-17 94-10 140 5 45 26 99 61 161 35 60 85 128 150 201 66 72 169 182 312 325l199 205c59 63 120 137 183 226 62 90 113 177 153 263 41 87 67 166 82 238 14 71 20 143 15 217-4 74-17 152-41 235-61 216-169 421-326 616-157 196-347 357-568 482-223 126-453 213-691 264-238 50-481 76-728 76-383 0-852-56-1404-169z"/></svg>