<svg xmlns="http://www.w3.org/2000/svg" width="58" height="35" viewBox="0 0 4304 2575" shape-rendering="geometricPrecision" text-rendering="geometricPrecision" image-rendering="optimizeQuality" fill-rule="evenodd" clip-rule="evenodd"><defs><style type="text/css"><![CDATA[
    .fil3 {fill:#FEFEFE}
    .fil2 {fill:#142068}
    .fil0 {fill:#DB0703}
    .fil1 {fill:#FAA210}
   ]]></style></defs><g id="_940929536"><path class="fil0" d="M2576 1288c0 711-577 1288-1288 1288s-1288-577-1288-1288 577-1288 1288-1288 1288 577 1288 1288z"/><path class="fil1" d="M3017 0c-333 0-636 126-865 333-46 42-90 88-130 136h260c36 43 68 89 98 136h-457c-27 44-52 89-74 136h605c21 44 39 90 55 136h-714c-15 44-27 90-37 136h789c19 88 29 179 29 273 0 143-23 281-66 409h-714c16 47 34 92 54 136h605c-22 47-47 93-74 136h-456c30 47 63 93 98 136h260c-40 49-83 94-130 136 229 207 532 333 864 333 711 0 1288-577 1288-1288s-577-1288-1288-1288zM4133 2005c0-23 19-42 42-42s42 19 42 42-19 42-42 42-42-19-42-42zm42 32c17 0 32-14 32-32 0-17-14-32-32-32s-32 14-32 32c0 17 14 32 32 32zm-6-13h-9v-37h15c3 0 7 0 9 2 3 2 5 6 5 9 0 4-2 8-6 9l7 16h-9l-6-14h-6v14zm0-21h5c2 0 4 0 5-1s2-3 2-4-1-3-2-4-4-1-5-1h-5v9z"/><path class="fil2" d="M987 1429c-15-2-21-2-31-2-79 0-119 27-119 81 0 33 20 54 50 54 57 0 98-54 100-133zm102 237h-116l3-55c-35 44-82 64-147 64-76 0-128-59-128-145 0-129 90-205 245-205 16 0 36 1 57 4 4-17 5-25 5-34 0-35-24-48-90-48-68-1-125 16-148 24 1-9 19-119 19-119 70-21 116-28 167-28 120 0 184 54 184 156 0 27-4 61-11 105-12 77-38 242-42 282zM643 1665h-140l80-502-179 502h-95l-12-499-84 499h-131l109-653h201l13 366 122-366h224zM3189 1429c-15-2-21-2-31-2-79 0-119 27-119 81 0 33 19 54 50 54 57 0 98-54 100-133zm102 237h-116l3-55c-35 44-83 64-147 64-76 0-128-59-128-145 0-129 90-205 245-205 16 0 36 1 57 4 4-17 5-25 5-34 0-35-24-48-90-48-68-1-125 16-148 24 1-9 19-119 19-119 70-21 116-28 167-28 120 0 184 54 184 156 0 27-4 61-11 105-12 77-38 242-42 282zM1710 1657c-38 12-68 17-100 17-72 0-110-41-110-117-1-23 10-85 19-142 8-50 61-362 61-362h139l-16 80h84l-19 128h-84c-16 101-39 227-39 244 0 27 15 39 48 39 16 0 28-2 38-5l-18 118zM2136 1653c-48 15-94 22-143 22-156 0-237-81-237-237 0-182 103-315 243-315 115 0 188 75 188 192 0 39-5 77-17 131h-277c-9 77 40 109 121 109 50 0 95-10 144-33l-23 132zm-78-315c1-11 15-95-65-95-44 0-76 34-89 95h153zM1173 1302c0 67 33 114 106 148 57 27 65 35 65 59 0 33-25 48-80 48-42 0-81-7-125-21 0 0-18 117-19 123 32 7 60 13 145 16 148 0 216-56 216-178 0-73-29-116-99-148-59-27-65-33-65-58 0-29 23-43 68-43 27 0 65 3 100 8l20-123c-36-6-91-10-123-10-156 0-211 82-210 180zM2816 1136c39 0 75 10 125 35l23-142c-21-8-93-55-154-55-94 0-173 46-228 123-81-27-115 27-155 82l-36 8c3-18 5-35 4-53h-128c-18 164-49 331-73 495l-6 36h140c23-152 36-249 44-315l53-29c8-29 33-39 82-38-6 35-10 71-10 109 0 174 94 282 244 282 39 0 72-5 124-19l25-149c-46 23-84 33-119 33-81 0-130-60-130-159 0-144 73-245 177-245zM4000 1012l-31 189c-38-50-79-87-133-87-70 0-135 53-177 132-58-12-119-33-119-33v1c5-44 7-71 6-80h-128c-17 164-49 331-73 495l-6 36h140c19-123 33-224 44-305 48-43 72-81 120-78-21 52-34 111-34 172 0 133 67 220 169 220 51 0 91-18 129-59l-7 49h132l106-653h-138zm-175 531c-48 0-72-35-72-105 0-104 45-178 108-178 48 0 74 37 74 104 0 105-46 179-111 179z"/><path class="fil3" d="M683 1627h-140l80-502-179 502h-95l-12-500-84 500h-131l110-653h201l5 404 136-404h217zM1027 1390c-15-2-21-2-31-2-79 0-119 27-119 81 0 33 20 54 50 54 57 0 98-54 100-133zm102 237h-116l3-55c-35 43-82 64-147 64-76 0-128-59-128-145 0-129 90-205 245-205 16 0 36 1 57 4 4-18 5-25 5-35 0-35-24-48-90-48-68-1-125 16-148 24 1-9 19-119 19-119 70-20 116-28 167-28 120 0 184 54 184 156 0 27-4 61-11 105-12 77-38 242-42 282zM3004 991l-23 142c-50-25-86-35-125-35-104 0-178 101-178 245 0 99 49 159 131 159 34 0 72-11 119-33l-25 149c-51 14-85 19-124 19-151 0-244-108-244-282 0-234 130-397 315-397 61 0 133 26 154 34zM3230 1390c-15-2-21-2-31-2-79 0-119 27-119 81 0 33 20 54 50 54 57 0 98-54 100-133zm102 237h-116l3-55c-35 43-82 64-146 64-76 0-128-59-128-145 0-129 90-205 245-205 16 0 36 1 57 4 4-18 5-25 5-35 0-35-24-48-90-48-68-1-125 16-148 24 1-9 19-119 19-119 70-20 116-28 167-28 120 0 184 54 184 156 0 27-4 61-11 105-12 77-38 242-42 282zM1750 1619c-38 12-68 17-100 17-71 0-110-41-110-117-1-24 10-85 19-142 8-50 61-363 61-363h139l-16 80h71l-19 128h-72c-16 101-39 227-39 244 0 27 15 39 48 39 16 0 28-2 38-5l-19 118zM2176 1614c-48 15-94 22-143 21-156 0-237-81-237-237 0-182 103-315 243-315 115 0 188 75 188 192 0 39-5 77-17 131h-277c-9 77 40 109 121 109 50 0 95-10 145-33l-23 132zm-78-315c1-11 15-95-65-95-44 0-76 34-89 95h153zM1213 1263c0 67 33 114 106 148 57 27 65 35 65 59 0 33-25 48-80 48-42 0-81-6-125-21 0 0-18 117-19 123 32 7 60 13 145 16 148 0 216-56 216-178 0-73-29-116-99-148-59-27-65-33-65-58 0-29 23-44 68-44 27 0 65 3 100 8l20-123c-36-6-91-10-123-10-156 0-211 82-210 180zM4071 1627h-132l7-49c-38 41-78 59-129 59-102 0-169-88-169-220 0-177 104-326 227-326 54 0 95 22 134 72l31-189h138l-106 653zm-206-123c65 0 111-74 111-179 0-67-26-104-74-104-63 0-108 74-108 178 0 70 24 105 72 105zM3457 1095c-18 164-49 331-73 495l-6 36h140c50-325 62-388 140-380 13-66 36-125 53-154-59-12-91 21-134 84 3-27 10-54 8-81h-128zM2306 1095c-18 164-49 331-73 495l-6 36h140c50-325 62-388 140-380 13-66 36-125 53-154-58-12-91 21-134 84 3-27 10-54 8-81h-128zM4133 1585c0-23 19-42 42-42s42 19 42 42-19 42-42 42-42-19-42-42zm42 32c18 0 32-14 32-32 0-17-14-32-32-32-17 0-32 14-32 32 0 17 14 32 32 32zm-6-13h-9v-37h15c3 0 6 0 9 2s5 5 5 9-2 8-6 9l7 16h-9l-6-14h-6v14zm0-21h5c2 0 4 0 5-1s2-3 2-4-1-3-2-4-4-1-5-1h-5v9z"/></g></svg>