<svg xmlns="http://www.w3.org/2000/svg" width="71" height="20" viewBox="0 0 4228 1192" shape-rendering="geometricPrecision" text-rendering="geometricPrecision" image-rendering="optimizeQuality" fill-rule="evenodd" clip-rule="evenodd"><defs><style type="text/css"><![CDATA[
    .fil0 {fill:#1FAA4D;fill-rule:nonzero}
    .fil1 {fill:url(#id0);fill-rule:nonzero}
   ]]></style><linearGradient id="id0" gradientUnits="userSpaceOnUse" x1="2980.96" y1="243.854" x2="4227.62" y2="243.854"><stop offset="0" stop-color="#00A7E2"/><stop offset="0" stop-color="#00A7E2"/><stop offset=".6" stop-color="#0093D3"/><stop offset="1" stop-color="#007EC3"/></linearGradient></defs><g id="_940995760"><path class="fil0" d="M2354 126l-267 579h-27v-705h-379v1192h322c85 0 161-49 197-126l267-579h27v705h379v-1192h-322c-85 0-161 49-197 126zM930 157l-158 548h-27l-158-548c-27-93-112-157-208-157h-379v1192h379v-705h27l217 705h271l217-705h27v705h379v-1192h-379c-97 0-181 64-208 157zM3035 542v650h379v-379h407c177 0 327-113 383-271h-1169z"/><path class="fil1" d="M3821 0h-840c51 278 294 488 586 488h652c5-26 8-53 8-81 0-224-182-406-407-406z"/></g></svg>