<svg xmlns="http://www.w3.org/2000/svg" width="65" height="20" viewBox="0 0 1417 437" shape-rendering="geometricPrecision" text-rendering="geometricPrecision" image-rendering="optimizeQuality" fill-rule="evenodd" clip-rule="evenodd"><defs><style type="text/css"><![CDATA[
    .fil0 {fill:#014488;fill-rule:nonzero}
    .fil1 {fill:#EAA327;fill-rule:nonzero}
   ]]></style></defs><g id="_940541952"><path class="fil0" d="M503 426l71-422h111l-66 422zM1029 18c-20-8-54-18-97-18-114 0-192 56-193 143-4 58 54 88 96 114 45 18 60 35 57 44 2 36-31 47-66 47-42 0-67-11-110-25l-13-2-13 96c24 6 73 19 128 20 116 0 195-57 199-144-6-50-34-83-98-115-42-19-65-33-68-54 0-18 23-30 70-30 34-5 61 2 82 13l11 4 14-93zM1326 7h-91c-24 0-45 10-57 37l-171 382h118s25-52 29-59c10 0 126-3 144-3 6 21 17 62 17 62h102l-92-419zm-142 276c13-27 46-123 46-123-3-1 9-20 17-34l10 29s17 104 23 128h-97zM405 7l-110 287-13-55c-22-67-82-145-157-180l102 367 124 2 174-421h-120z"/><path class="fil1" d="M189 7h-182l-7 6c149 39 247 122 282 226l-40-196c-5-30-28-31-54-36z"/></g></svg>